<?xml version="1.0" encoding="UTF-8" standalone="no"?>
<!DOCTYPE svg PUBLIC "-//W3C//DTD SVG 1.1//EN" "http://www.w3.org/Graphics/SVG/1.1/DTD/svg11.dtd">
<svg width="100%" height="100%" viewBox="0 0 64 64" version="1.1" xmlns="http://www.w3.org/2000/svg" xmlns:xlink="http://www.w3.org/1999/xlink" xml:space="preserve" xmlns:serif="http://www.serif.com/" style="fill-rule:evenodd;clip-rule:evenodd;stroke-linejoin:round;stroke-miterlimit:2;">
    <g transform="matrix(1,0,0,1,-2159.045797,-5405.861328)">
        <g transform="matrix(1,0,0,1,0,-0.094488)">
            <g transform="matrix(0.097859,0,0,0.097859,2074.691057,5267.093431)">
                <path d="M1516,1646.814L1516,1845.186C1516,1970.92 1413.92,2073 1288.186,2073L1089.814,2073C964.08,2073 862,1970.92 862,1845.186L862,1646.814C862,1521.08 964.08,1419 1089.814,1419L1288.186,1419C1413.92,1419 1516,1521.08 1516,1646.814ZM1189,1756.57C1200.481,1774.686 1212.921,1792.023 1225.932,1808.368C1284.626,1882.102 1353.952,1934.825 1389.503,1951.245L1447.192,1826.34C1422.017,1814.713 1375.139,1774.896 1333.575,1722.682C1293.788,1672.7 1257.768,1610.704 1257.789,1546.633L1257.789,1546.397C1257.791,1545.402 1257.802,1544.407 1257.821,1543.411L1257.776,1543.41L1257.737,1540.755L1120.263,1540.755L1120.224,1543.41L1120.179,1543.411C1120.198,1544.407 1120.209,1545.402 1120.211,1546.397L1120.211,1546.633C1120.232,1610.704 1084.212,1672.7 1044.425,1722.682C1002.861,1774.896 955.983,1814.713 930.808,1826.34L988.497,1951.245C1024.048,1934.825 1093.374,1882.102 1152.068,1808.368C1165.079,1792.023 1177.519,1774.686 1189,1756.57Z" style="fill:white;"/>
            </g>
        </g>
    </g>
</svg>
