<?xml version="1.0" encoding="UTF-8" standalone="no"?>
<!DOCTYPE svg PUBLIC "-//W3C//DTD SVG 1.1//EN" "http://www.w3.org/Graphics/SVG/1.1/DTD/svg11.dtd">
<svg width="100%" height="100%" viewBox="0 0 129 38" version="1.1" xmlns="http://www.w3.org/2000/svg" xmlns:xlink="http://www.w3.org/1999/xlink" xml:space="preserve" xmlns:serif="http://www.serif.com/" style="fill-rule:evenodd;clip-rule:evenodd;stroke-linecap:round;stroke-linejoin:round;stroke-miterlimit:2;">
    <g transform="matrix(1,0,0,1,-2820.462961,-5258.121024)">
        <g transform="matrix(1,0,0,1,0,-0.094488)">
            <g transform="matrix(0.301587,0,0,0.301587,2320.567265,3600.079029)">
                <g transform="matrix(0.192661,0,0,0.192661,1491.475493,5224.646175)">
                    <path d="M1516,1646.814L1516,1845.186C1516,1970.92 1413.92,2073 1288.186,2073L1089.814,2073C964.08,2073 862,1970.92 862,1845.186L862,1646.814C862,1521.08 964.08,1419 1089.814,1419L1288.186,1419C1413.92,1419 1516,1521.08 1516,1646.814Z" style="fill:rgb(22,14,14);"/>
                </g>
                <g transform="matrix(0.868503,0,0,0.868503,-508.59295,4584.058512)">
                    <path d="M2704.401,1111.507C2704.604,1112.014 2705.06,1112.318 2705.567,1112.318C2706.226,1112.318 2706.834,1111.71 2706.834,1111.051C2706.834,1110.899 2706.783,1110.646 2706.276,1109.429C2704.3,1104.411 2699.332,1093.311 2695.683,1085.455C2695.48,1084.999 2694.973,1084.745 2694.467,1084.745L2694.264,1084.745C2693.757,1084.745 2693.25,1085.049 2693.047,1085.506C2689.55,1093.261 2685.191,1103.296 2682.91,1109.429C2682.454,1110.595 2682.403,1110.798 2682.403,1111.001C2682.403,1111.761 2683.012,1112.318 2683.62,1112.318C2684.127,1112.318 2684.684,1112.014 2684.887,1111.457C2685.546,1109.632 2686.407,1107.402 2687.371,1104.969L2701.664,1104.969C2702.728,1107.402 2703.691,1109.683 2704.401,1111.507ZM2694.365,1088.749C2696.393,1093.007 2698.623,1097.924 2700.6,1102.435L2688.435,1102.435C2690.31,1097.924 2692.49,1093.058 2694.365,1088.749Z" style="fill-rule:nonzero;stroke:rgb(29,29,29);stroke-width:2.16px;"/>
                    <path d="M2715.603,1112.318L2729.338,1112.318C2730.048,1112.318 2730.606,1111.71 2730.606,1111.051C2730.606,1110.342 2730.048,1109.784 2729.338,1109.784L2716.87,1109.784L2716.87,1086.469C2716.87,1085.759 2716.312,1085.201 2715.603,1085.201C2714.944,1085.201 2714.335,1085.759 2714.335,1086.469L2714.335,1111.051C2714.335,1111.71 2714.944,1112.318 2715.603,1112.318Z" style="fill-rule:nonzero;stroke:rgb(29,29,29);stroke-width:2.16px;"/>
                    <path d="M2740.388,1111.051L2740.388,1086.469C2740.388,1085.759 2739.83,1085.201 2739.121,1085.201C2738.462,1085.201 2737.854,1085.759 2737.854,1086.469L2737.854,1111.051C2737.854,1111.71 2738.462,1112.318 2739.121,1112.318C2739.83,1112.318 2740.388,1111.761 2740.388,1111.051Z" style="fill-rule:nonzero;stroke:rgb(29,29,29);stroke-width:2.16px;"/>
                    <path d="M2770.242,1111.812C2770.495,1112.166 2770.901,1112.318 2771.61,1112.318C2772.269,1112.318 2772.827,1111.761 2772.827,1111.051L2772.827,1086.469C2772.827,1085.759 2772.269,1085.201 2771.56,1085.201C2770.901,1085.201 2770.292,1085.759 2770.292,1086.469L2770.292,1107.706C2764.717,1100.407 2756.557,1090.219 2753.161,1085.708C2752.907,1085.354 2752.552,1085.201 2751.792,1085.201C2751.184,1085.201 2750.576,1085.759 2750.576,1086.469L2750.576,1111.051C2750.576,1111.71 2751.184,1112.318 2751.843,1112.318C2752.552,1112.318 2753.11,1111.761 2753.11,1111.051L2753.11,1089.814C2757.672,1095.693 2765.579,1105.577 2770.242,1111.812Z" style="fill-rule:nonzero;stroke:rgb(29,29,29);stroke-width:2.16px;"/>
                    <path d="M2782.761,1111.051C2782.761,1111.71 2783.369,1112.318 2784.028,1112.318L2798.17,1112.318C2798.879,1112.318 2799.437,1111.71 2799.437,1111.051C2799.437,1110.342 2798.879,1109.784 2798.17,1109.784L2785.295,1109.784L2785.295,1099.089L2795.889,1099.089C2796.598,1099.089 2797.156,1098.481 2797.156,1097.822C2797.156,1097.113 2796.598,1096.555 2795.889,1096.555L2785.295,1096.555L2785.295,1087.736L2798.068,1087.736C2798.778,1087.736 2799.335,1087.128 2799.335,1086.469C2799.335,1085.759 2798.778,1085.201 2798.068,1085.201L2783.876,1085.201C2783.268,1085.201 2782.761,1085.81 2782.761,1086.469L2782.761,1111.051Z" style="fill-rule:nonzero;stroke:rgb(29,29,29);stroke-width:2.16px;"/>
                    <path d="M2827.415,1111.507C2827.618,1112.014 2828.074,1112.318 2828.581,1112.318C2829.24,1112.318 2829.848,1111.71 2829.848,1111.051C2829.848,1110.899 2829.798,1110.646 2829.291,1109.429C2827.314,1104.411 2822.347,1093.311 2818.697,1085.455C2818.495,1084.999 2817.988,1084.745 2817.481,1084.745L2817.278,1084.745C2816.771,1084.745 2816.265,1085.049 2816.062,1085.506C2812.564,1093.261 2808.205,1103.296 2805.925,1109.429C2805.468,1110.595 2805.418,1110.798 2805.418,1111.001C2805.418,1111.761 2806.026,1112.318 2806.634,1112.318C2807.141,1112.318 2807.699,1112.014 2807.901,1111.457C2808.56,1109.632 2809.422,1107.402 2810.385,1104.969L2824.678,1104.969C2825.743,1107.402 2826.706,1109.683 2827.415,1111.507ZM2817.38,1088.749C2819.407,1093.007 2823.614,1102.435 2823.614,1102.435L2811.449,1102.435C2813.325,1097.924 2815.504,1093.058 2817.38,1088.749Z" style="fill-rule:nonzero;stroke:rgb(29,29,29);stroke-width:2.16px;"/>
                    <path d="M2881.903,1111.305C2882.004,1111.964 2882.562,1112.42 2883.17,1112.42C2883.879,1112.42 2884.437,1111.862 2884.437,1111.153C2884.437,1110.95 2884.386,1110.443 2883.879,1107.098C2883.525,1104.817 2881.903,1093.666 2880.281,1085.708C2880.179,1085.1 2879.571,1084.695 2878.963,1084.695C2878.507,1084.695 2878.101,1084.847 2877.797,1085.354C2874.3,1091.892 2870.498,1100.407 2867.609,1107.047C2864.315,1100.306 2860.31,1092.044 2857.523,1086.367C2857.32,1085.911 2856.965,1085.404 2856.712,1085.151C2856.509,1084.897 2856.205,1084.745 2855.799,1084.745C2855.191,1084.745 2854.583,1085.201 2854.482,1085.81C2853.214,1093.058 2851.694,1105.121 2851.187,1109.632L2851.035,1111.102C2851.035,1111.862 2851.593,1112.42 2852.251,1112.42C2852.91,1112.42 2853.519,1111.913 2853.569,1111.305C2854.127,1106.287 2855.343,1096.859 2856.458,1089.713C2859.5,1096.048 2863.504,1104.513 2866.494,1110.747C2866.697,1111.203 2867.204,1111.457 2867.711,1111.457C2868.268,1111.457 2868.623,1111.102 2868.826,1110.595C2871.36,1104.462 2875.009,1096.504 2878.405,1089.662C2879.774,1096.961 2881.142,1105.526 2881.903,1111.305Z" style="fill-rule:nonzero;stroke:rgb(29,29,29);stroke-width:2.16px;"/>
                    <path d="M2893.51,1111.051C2893.51,1111.71 2894.118,1112.318 2894.777,1112.318L2908.918,1112.318C2909.628,1112.318 2910.185,1111.71 2910.185,1111.051C2910.185,1110.342 2909.628,1109.784 2908.918,1109.784L2896.044,1109.784L2896.044,1099.089L2906.637,1099.089C2907.347,1099.089 2907.904,1098.481 2907.904,1097.822C2907.904,1097.113 2907.347,1096.555 2906.637,1096.555L2896.044,1096.555L2896.044,1087.736L2908.817,1087.736C2909.526,1087.736 2910.084,1087.128 2910.084,1086.469C2910.084,1085.759 2909.526,1085.201 2908.817,1085.201L2894.625,1085.201C2894.017,1085.201 2893.51,1085.81 2893.51,1086.469L2893.51,1111.051Z" style="fill-rule:nonzero;stroke:rgb(29,29,29);stroke-width:2.16px;"/>
                    <path d="M2919.461,1112.318L2928.382,1112.318C2936.086,1112.318 2941.154,1106.337 2941.154,1098.735C2941.154,1090.726 2935.072,1085.201 2928.382,1085.201L2919.461,1085.201C2918.751,1085.201 2918.194,1085.759 2918.194,1086.469L2918.194,1111.051C2918.194,1111.761 2918.751,1112.318 2919.461,1112.318ZM2920.728,1087.736L2928.382,1087.736C2933.856,1087.736 2938.62,1092.348 2938.62,1098.735C2938.62,1104.817 2934.667,1109.784 2928.382,1109.784L2920.728,1109.784L2920.728,1087.736Z" style="fill-rule:nonzero;stroke:rgb(29,29,29);stroke-width:2.16px;"/>
                    <path d="M2952.001,1111.051L2952.001,1086.469C2952.001,1085.759 2951.444,1085.201 2950.734,1085.201C2950.075,1085.201 2949.467,1085.759 2949.467,1086.469L2949.467,1111.051C2949.467,1111.71 2950.075,1112.318 2950.734,1112.318C2951.444,1112.318 2952.001,1111.761 2952.001,1111.051Z" style="fill-rule:nonzero;stroke:rgb(29,29,29);stroke-width:2.16px;"/>
                    <path d="M2981.652,1111.507C2981.855,1112.014 2982.311,1112.318 2982.818,1112.318C2983.477,1112.318 2984.085,1111.71 2984.085,1111.051C2984.085,1110.899 2984.035,1110.646 2983.528,1109.429C2981.551,1104.411 2976.584,1093.311 2972.934,1085.455C2972.732,1084.999 2972.225,1084.745 2971.718,1084.745L2971.515,1084.745C2971.008,1084.745 2970.501,1085.049 2970.299,1085.506C2966.801,1093.261 2962.442,1103.296 2960.162,1109.429C2959.705,1110.595 2959.655,1110.798 2959.655,1111.001C2959.655,1111.761 2960.263,1112.318 2960.871,1112.318C2961.378,1112.318 2961.936,1112.014 2962.138,1111.457C2962.797,1109.632 2963.659,1107.402 2964.622,1104.969L2978.915,1104.969C2979.98,1107.402 2980.943,1109.683 2981.652,1111.507ZM2971.617,1088.749C2973.644,1093.007 2975.874,1097.924 2977.851,1102.435L2965.686,1102.435C2967.562,1097.924 2969.741,1093.058 2971.617,1088.749Z" style="fill-rule:nonzero;stroke:rgb(29,29,29);stroke-width:2.16px;"/>
                    <path d="M2686.205,1165.091L2695.125,1165.091C2702.83,1165.091 2707.898,1159.11 2707.898,1151.507C2707.898,1143.499 2701.816,1137.974 2695.125,1137.974L2686.205,1137.974C2685.495,1137.974 2684.938,1138.532 2684.938,1139.241L2684.938,1163.824C2684.938,1164.534 2685.495,1165.091 2686.205,1165.091ZM2687.472,1140.509L2695.125,1140.509C2700.6,1140.509 2705.364,1145.121 2705.364,1151.507C2705.364,1157.59 2701.41,1162.557 2695.125,1162.557L2687.472,1162.557L2687.472,1140.509Z" style="fill-rule:nonzero;stroke:rgb(29,29,29);stroke-width:2.16px;"/>
                    <path d="M2718.745,1163.824L2718.745,1139.241C2718.745,1138.532 2718.187,1137.974 2717.478,1137.974C2716.819,1137.974 2716.211,1138.532 2716.211,1139.241L2716.211,1163.824C2716.211,1164.483 2716.819,1165.091 2717.478,1165.091C2718.187,1165.091 2718.745,1164.534 2718.745,1163.824Z" style="fill-rule:nonzero;stroke:rgb(29,29,29);stroke-width:2.16px;"/>
                    <path d="M2728.933,1163.824C2728.933,1164.483 2729.541,1165.091 2730.2,1165.091C2730.91,1165.091 2731.467,1164.534 2731.467,1163.824L2731.467,1156.17L2737.448,1156.17C2744.088,1156.17 2747.383,1151.964 2747.383,1147.047C2747.383,1141.826 2743.378,1137.974 2737.448,1137.974L2730.2,1137.974C2729.49,1137.974 2728.933,1138.532 2728.933,1139.241L2728.933,1163.824ZM2731.467,1140.509L2737.448,1140.509C2741.756,1140.509 2744.848,1143.144 2744.848,1147.047C2744.848,1150.747 2742.263,1153.636 2737.448,1153.636L2731.467,1153.636L2731.467,1140.509Z" style="fill-rule:nonzero;stroke:rgb(29,29,29);stroke-width:2.16px;"/>
                    <path d="M2772.472,1164.28C2772.675,1164.787 2773.131,1165.091 2773.638,1165.091C2774.297,1165.091 2774.905,1164.483 2774.905,1163.824C2774.905,1163.672 2774.854,1163.419 2774.347,1162.202C2772.371,1157.184 2767.403,1146.084 2763.754,1138.228C2763.551,1137.772 2763.044,1137.518 2762.538,1137.518L2762.335,1137.518C2761.828,1137.518 2761.321,1137.822 2761.118,1138.278C2757.621,1146.033 2753.262,1156.069 2750.981,1162.202C2750.525,1163.368 2750.474,1163.571 2750.474,1163.773C2750.474,1164.534 2751.083,1165.091 2751.691,1165.091C2752.198,1165.091 2752.755,1164.787 2752.958,1164.23C2753.617,1162.405 2754.479,1160.175 2755.442,1157.742L2769.735,1157.742C2770.799,1160.175 2771.762,1162.456 2772.472,1164.28ZM2762.436,1141.522C2764.464,1145.78 2766.694,1150.696 2768.671,1155.207L2756.506,1155.207C2758.381,1150.696 2760.561,1145.831 2762.436,1141.522Z" style="fill-rule:nonzero;stroke:rgb(29,29,29);stroke-width:2.16px;"/>
                    <path d="M2802.073,1164.584C2802.326,1164.939 2802.731,1165.091 2803.441,1165.091C2804.1,1165.091 2804.657,1164.534 2804.657,1163.824L2804.657,1139.241C2804.657,1138.532 2804.1,1137.974 2803.39,1137.974C2802.731,1137.974 2802.123,1138.532 2802.123,1139.241L2802.123,1160.479C2796.548,1153.18 2788.387,1142.992 2784.991,1138.481C2784.738,1138.126 2784.383,1137.974 2783.623,1137.974C2783.015,1137.974 2782.406,1138.532 2782.406,1139.241L2782.406,1163.824C2782.406,1164.483 2783.015,1165.091 2783.674,1165.091C2784.383,1165.091 2784.941,1164.534 2784.941,1163.824L2784.941,1142.587C2789.502,1148.466 2797.409,1158.35 2802.073,1164.584Z" style="fill-rule:nonzero;stroke:rgb(29,29,29);stroke-width:2.16px;"/>
                    <path d="M2822.093,1163.824C2822.093,1164.483 2822.702,1165.091 2823.361,1165.091C2824.07,1165.091 2824.628,1164.534 2824.628,1163.824L2824.628,1140.509L2834.309,1140.509C2835.018,1140.509 2835.576,1139.9 2835.576,1139.241C2835.576,1138.532 2835.018,1137.974 2834.309,1137.974L2812.615,1137.974C2811.956,1137.974 2811.348,1138.532 2811.348,1139.241C2811.348,1139.9 2811.956,1140.509 2812.615,1140.509L2822.093,1140.509L2822.093,1163.824Z" style="fill-rule:nonzero;stroke:rgb(29,29,29);stroke-width:2.16px;"/>
                    <path d="M2859.195,1164.28C2859.398,1164.787 2859.854,1165.091 2860.361,1165.091C2861.02,1165.091 2861.628,1164.483 2861.628,1163.824C2861.628,1163.672 2861.578,1163.419 2861.071,1162.202C2859.094,1157.184 2854.127,1146.084 2850.477,1138.228C2850.275,1137.772 2849.768,1137.518 2849.261,1137.518L2849.058,1137.518C2848.551,1137.518 2848.045,1137.822 2847.842,1138.278C2844.344,1146.033 2839.985,1156.069 2837.705,1162.202C2837.248,1163.368 2837.198,1163.571 2837.198,1163.773C2837.198,1164.534 2837.806,1165.091 2838.414,1165.091C2838.921,1165.091 2839.479,1164.787 2839.681,1164.23C2840.34,1162.405 2841.202,1160.175 2842.165,1157.742L2856.458,1157.742C2857.523,1160.175 2858.486,1162.456 2859.195,1164.28ZM2849.16,1141.522C2851.187,1145.78 2853.417,1150.696 2855.394,1155.207L2843.229,1155.207C2845.105,1150.696 2847.284,1145.831 2849.16,1141.522Z" style="fill-rule:nonzero;stroke:rgb(29,29,29);stroke-width:2.16px;"/>
                    <path d="M2886.718,1164.635C2886.971,1164.939 2887.326,1165.091 2887.681,1165.091C2888.39,1165.091 2888.948,1164.432 2888.948,1163.824C2888.948,1163.52 2888.847,1163.216 2888.644,1163.013L2881.396,1154.549C2885.552,1153.383 2887.529,1150.139 2887.529,1146.489C2887.529,1141.573 2883.778,1137.974 2877.848,1137.974L2870.397,1137.974C2869.687,1137.974 2869.13,1138.532 2869.13,1139.241L2869.13,1163.824C2869.13,1164.483 2869.738,1165.091 2870.397,1165.091C2871.107,1165.091 2871.664,1164.534 2871.664,1163.824L2871.664,1155.005L2878.456,1155.005L2886.718,1164.635ZM2871.664,1140.509L2877.848,1140.509C2882.055,1140.509 2884.994,1142.891 2884.994,1146.489C2884.994,1149.835 2882.511,1152.47 2877.848,1152.47L2871.664,1152.47L2871.664,1140.509Z" style="fill-rule:nonzero;stroke:rgb(29,29,29);stroke-width:2.16px;"/>
                    <path d="M2917.535,1164.28C2917.738,1164.787 2918.194,1165.091 2918.701,1165.091C2919.359,1165.091 2919.968,1164.483 2919.968,1163.824C2919.968,1163.672 2919.917,1163.419 2919.41,1162.202C2917.433,1157.184 2912.466,1146.084 2908.817,1138.228C2908.614,1137.772 2908.107,1137.518 2907.6,1137.518L2907.398,1137.518C2906.891,1137.518 2906.384,1137.822 2906.181,1138.278C2902.684,1146.033 2898.325,1156.069 2896.044,1162.202C2895.588,1163.368 2895.537,1163.571 2895.537,1163.773C2895.537,1164.534 2896.145,1165.091 2896.754,1165.091C2897.26,1165.091 2897.818,1164.787 2898.021,1164.23C2898.68,1162.405 2899.541,1160.175 2900.504,1157.742L2914.798,1157.742C2915.862,1160.175 2916.825,1162.456 2917.535,1164.28ZM2907.499,1141.522C2909.526,1145.78 2911.757,1150.696 2913.733,1155.207L2901.569,1155.207C2903.444,1150.696 2905.624,1145.831 2907.499,1141.522Z" style="fill-rule:nonzero;stroke:rgb(29,29,29);stroke-width:2.16px;"/>
                </g>
                <g transform="matrix(0.353425,0,0,0.353425,1211.60897,3899.535632)">
                    <path d="M1440.023,4706.891C1433.764,4716.766 1426.983,4726.217 1419.89,4735.127C1387.895,4775.321 1350.103,4804.062 1330.724,4813.013L1299.276,4744.924C1313,4738.586 1338.554,4716.88 1361.211,4688.417C1382.9,4661.171 1402.536,4627.376 1402.524,4592.449C1402.524,4592.406 1402.524,4592.363 1402.524,4592.32C1402.523,4591.778 1402.517,4591.235 1402.507,4590.692L1402.532,4590.692C1402.536,4590.209 1402.543,4589.727 1402.553,4589.245L1477.493,4589.245C1477.502,4589.727 1477.509,4590.209 1477.514,4590.692L1477.539,4590.692C1477.528,4591.235 1477.523,4591.778 1477.522,4592.32C1477.522,4592.363 1477.522,4592.406 1477.522,4592.449C1477.51,4627.376 1497.145,4661.171 1518.834,4688.417C1541.492,4716.88 1567.046,4738.586 1580.77,4744.924L1549.322,4813.013C1529.942,4804.062 1492.151,4775.321 1460.156,4735.127C1453.063,4726.217 1446.282,4716.766 1440.023,4706.891Z" style="fill:white;"/>
                </g>
            </g>
        </g>
    </g>
</svg>
