<?xml version="1.0" encoding="UTF-8" standalone="no"?>
<!DOCTYPE svg PUBLIC "-//W3C//DTD SVG 1.1//EN" "http://www.w3.org/Graphics/SVG/1.1/DTD/svg11.dtd">
<svg width="100%" height="100%" viewBox="0 0 129 38" version="1.1" xmlns="http://www.w3.org/2000/svg" xmlns:xlink="http://www.w3.org/1999/xlink" xml:space="preserve" xmlns:serif="http://www.serif.com/" style="fill-rule:evenodd;clip-rule:evenodd;stroke-linecap:round;stroke-linejoin:round;stroke-miterlimit:2;">
    <g transform="matrix(1,0,0,1,-2820.462961,-5258.121024)">
        <g transform="matrix(1,0,0,1,0,-0.094488)">
            <g transform="matrix(0.301587,0,0,0.301587,2320.567265,3600.079029)">
                <g transform="matrix(0.192661,0,0,0.192661,1491.475493,5224.646175)">
                    <path d="M1516,1646.814L1516,1845.186C1516,1970.92 1413.92,2073 1288.186,2073L1089.814,2073C964.08,2073 862,1970.92 862,1845.186L862,1646.814C862,1521.08 964.08,1419 1089.814,1419L1288.186,1419C1413.92,1419 1516,1521.08 1516,1646.814Z" style="fill:rgb(22,14,14);"/>
                </g>
                <g transform="matrix(0.868503,0,0,0.868503,-508.59295,4584.058512)">
                    <text x="2679.97px" y="1112.318px" style="font-family:'Hubballi-Regular', 'Hubballi';font-size:50.686px;stroke:rgb(29,29,29);stroke-width:2.16px;">ALINE<tspan x="2802.985px " y="1112.318px ">A</tspan> MEDIA</text>
                    <g transform="matrix(50.68581,0,0,50.68581,2922.501987,1165.091176)">
                    </g>
                    <text x="2679.97px" y="1165.091px" style="font-family:'Hubballi-Regular', 'Hubballi';font-size:50.686px;stroke:rgb(29,29,29);stroke-width:2.16px;">DIP<tspan x="2748.041px " y="1165.091px ">A</tspan>NT<tspan x="2834.765px 2864.163px 2893.104px " y="1165.091px 1165.091px 1165.091px ">ARA</tspan></text>
                </g>
                <g transform="matrix(0.353425,0,0,0.353425,1211.60897,3899.535632)">
                    <path d="M1440.023,4706.891C1433.764,4716.766 1426.983,4726.217 1419.89,4735.127C1387.895,4775.321 1350.103,4804.062 1330.724,4813.013L1299.276,4744.924C1313,4738.586 1338.554,4716.88 1361.211,4688.417C1382.9,4661.171 1402.536,4627.376 1402.524,4592.449C1402.524,4592.406 1402.524,4592.363 1402.524,4592.32C1402.523,4591.778 1402.517,4591.235 1402.507,4590.692L1402.532,4590.692C1402.536,4590.209 1402.543,4589.727 1402.553,4589.245L1477.493,4589.245C1477.502,4589.727 1477.509,4590.209 1477.514,4590.692L1477.539,4590.692C1477.528,4591.235 1477.523,4591.778 1477.522,4592.32C1477.522,4592.363 1477.522,4592.406 1477.522,4592.449C1477.51,4627.376 1497.145,4661.171 1518.834,4688.417C1541.492,4716.88 1567.046,4738.586 1580.77,4744.924L1549.322,4813.013C1529.942,4804.062 1492.151,4775.321 1460.156,4735.127C1453.063,4726.217 1446.282,4716.766 1440.023,4706.891Z" style="fill:white;"/>
                </g>
            </g>
        </g>
    </g>
</svg>
